<?xml version="1.0" encoding="utf-8"?><svg viewBox="0 0 244 32" xmlns="http://www.w3.org/2000/svg" xmlns:xlink="http://www.w3.org/1999/xlink"><style>:root>svg{display:none}:root>svg:target{display:block}</style><svg fill="none" viewBox="0 0 24 24" id="icons--burger_menu" xmlns="http://www.w3.org/2000/svg"><path fill-rule="evenodd" clip-rule="evenodd" d="M3 12a.75.75 0 0 1 .75-.75h16.5a.75.75 0 0 1 0 1.5H3.75A.75.75 0 0 1 3 12zm0-6a.75.75 0 0 1 .75-.75H15a.75.75 0 0 1 0 1.5H3.75A.75.75 0 0 1 3 6zm0 12a.75.75 0 0 1 .75-.75H15a.75.75 0 0 1 0 1.5H3.75A.75.75 0 0 1 3 18z" fill="#fff"/></svg><svg fill="none" viewBox="0 0 32 32" id="icons--discordLogo" xmlns="http://www.w3.org/2000/svg"><path d="M12 19.5a1.5 1.5 0 1 0 0-3 1.5 1.5 0 0 0 0 3zm8 0a1.5 1.5 0 1 0 0-3 1.5 1.5 0 0 0 0 3z" fill="#858584"/><path fill-rule="evenodd" clip-rule="evenodd" d="M15.993 10a20.863 20.863 0 0 0-6.394.955 1 1 0 1 1-.598-1.909 22.862 22.862 0 0 1 7-1.045 22.862 22.862 0 0 1 6.998 1.045 1 1 0 1 1-.598 1.909A20.863 20.863 0 0 0 16.008 10h-.015zM8.346 21.701a1 1 0 0 1 1.253-.655c2.069.648 4.226.97 6.394.954h.014a20.862 20.862 0 0 0 6.394-.954 1 1 0 0 1 .598 1.909A22.86 22.86 0 0 1 16 24a22.86 22.86 0 0 1-6.999-1.046 1 1 0 0 1-.655-1.253z" fill="#858584"/><path fill-rule="evenodd" clip-rule="evenodd" d="M20.22 4.81c.43-.242.935-.318 1.417-.213 1.318.286 2.608.686 3.855 1.197a1.962 1.962 0 0 1 1.18 1.286l4.235 14.145a2.013 2.013 0 0 1-.596 2.087l-.005.004c-2.068 1.8-4.869 3.16-8.05 3.94a1.974 1.974 0 0 1-2.266-1.053l-1.508-2.991a1 1 0 1 1 1.785-.9l1.513 3 .001.002c2.938-.72 5.432-1.958 7.212-3.507l.657.755-.662-.75a.013.013 0 0 0 .004-.006v-.007L24.756 7.654l-.011-.005a21.048 21.048 0 0 0-3.532-1.097h-.002c-.003-.002-.007-.001-.01 0a.012.012 0 0 0-.005.006l-.985 2.98a1 1 0 0 1-1.898-.628l.99-2.996c.16-.468.486-.86.916-1.104zm-9.422 1.742a.013.013 0 0 0-.009 0h-.002a21.05 21.05 0 0 0-3.543 1.102L3.008 21.799v.007c0 .002.002.004.004.005 1.78 1.547 4.272 2.783 7.207 3.503l.001-.003 1.512-3a1 1 0 0 1 1.786.9l-1.508 2.992a1.975 1.975 0 0 1-2.265 1.054c-3.182-.78-5.983-2.142-8.051-3.94l-.005-.005a2.013 2.013 0 0 1-.597-2.087L5.328 7.08a1.962 1.962 0 0 1 1.18-1.286 23.05 23.05 0 0 1 3.856-1.197 2.013 2.013 0 0 1 2.333 1.317l.003.009.987 2.987a1 1 0 1 1-1.898.628l-.985-2.98a.013.013 0 0 0-.006-.006z" fill="#858584"/><path d="M12 19.5a1.5 1.5 0 1 0 0-3 1.5 1.5 0 0 0 0 3zm8 0a1.5 1.5 0 1 0 0-3 1.5 1.5 0 0 0 0 3z" fill="#858584"/><path fill-rule="evenodd" clip-rule="evenodd" d="M15.993 10a20.863 20.863 0 0 0-6.394.955 1 1 0 1 1-.598-1.909 22.862 22.862 0 0 1 7-1.045 22.862 22.862 0 0 1 6.998 1.045 1 1 0 1 1-.598 1.909A20.863 20.863 0 0 0 16.008 10h-.015zM8.346 21.701a1 1 0 0 1 1.253-.655c2.069.648 4.226.97 6.394.954h.014a20.862 20.862 0 0 0 6.394-.954 1 1 0 0 1 .598 1.909A22.86 22.86 0 0 1 16 24a22.86 22.86 0 0 1-6.999-1.046 1 1 0 0 1-.655-1.253z" fill="#858584"/><path fill-rule="evenodd" clip-rule="evenodd" d="M20.22 4.81c.43-.242.935-.318 1.417-.213 1.318.286 2.608.686 3.855 1.197a1.962 1.962 0 0 1 1.18 1.286l4.235 14.145a2.013 2.013 0 0 1-.596 2.087l-.005.004c-2.068 1.8-4.869 3.16-8.05 3.94a1.974 1.974 0 0 1-2.266-1.053l-1.508-2.991a1 1 0 1 1 1.785-.9l1.513 3 .001.002c2.938-.72 5.432-1.958 7.212-3.507l.657.755-.662-.75a.013.013 0 0 0 .004-.006v-.007L24.756 7.654l-.011-.005a21.048 21.048 0 0 0-3.532-1.097h-.002c-.003-.002-.007-.001-.01 0a.012.012 0 0 0-.005.006l-.985 2.98a1 1 0 0 1-1.898-.628l.99-2.996c.16-.468.486-.86.916-1.104zm-9.422 1.742a.013.013 0 0 0-.009 0h-.002a21.05 21.05 0 0 0-3.543 1.102L3.008 21.799v.007c0 .002.002.004.004.005 1.78 1.547 4.272 2.783 7.207 3.503l.001-.003 1.512-3a1 1 0 0 1 1.786.9l-1.508 2.992a1.975 1.975 0 0 1-2.265 1.054c-3.182-.78-5.983-2.142-8.051-3.94l-.005-.005a2.013 2.013 0 0 1-.597-2.087L5.328 7.08a1.962 1.962 0 0 1 1.18-1.286 23.05 23.05 0 0 1 3.856-1.197 2.013 2.013 0 0 1 2.333 1.317l.003.009.987 2.987a1 1 0 1 1-1.898.628l-.985-2.98a.013.013 0 0 0-.006-.006z" fill="#858584"/></svg><svg fill="none" viewBox="0 0 20 20" id="icons--email_list" xmlns="http://www.w3.org/2000/svg"><path fill-rule="evenodd" clip-rule="evenodd" d="M1.875 4.375c0-.345.28-.625.625-.625h15c.345 0 .625.28.625.625V15a1.25 1.25 0 0 1-1.25 1.25H3.125A1.25 1.25 0 0 1 1.875 15V4.375zM3.125 5v10h13.75V5H3.125z" fill="#fff"/><path fill-rule="evenodd" clip-rule="evenodd" d="M2.04 3.953a.625.625 0 0 1 .882-.039L10 10.402l7.078-6.488a.625.625 0 1 1 .844.922l-7.5 6.875a.625.625 0 0 1-.844 0l-7.5-6.875a.625.625 0 0 1-.039-.883z" fill="#fff"/></svg><svg fill="none" viewBox="0 0 32 32" id="icons--instagramLogo" xmlns="http://www.w3.org/2000/svg"><path fill-rule="evenodd" clip-rule="evenodd" d="M16 12a4 4 0 1 0 0 8 4 4 0 0 0 0-8zm-6 4a6 6 0 1 1 12 0 6 6 0 0 1-12 0z" fill="#858584"/><path fill-rule="evenodd" clip-rule="evenodd" d="M10.5 5.5a5 5 0 0 0-5 5v11a5 5 0 0 0 5 5h11a5 5 0 0 0 5-5v-11a5 5 0 0 0-5-5h-11zm-7 5a7 7 0 0 1 7-7h11a7 7 0 0 1 7 7v11a7 7 0 0 1-7 7h-11a7 7 0 0 1-7-7v-11z" fill="#858584"/><path d="M22.5 11a1.5 1.5 0 1 0 0-3 1.5 1.5 0 0 0 0 3z" fill="#858584"/></svg><svg fill="none" viewBox="0 0 20 20" id="icons--rocket" xmlns="http://www.w3.org/2000/svg"><path fill-rule="evenodd" clip-rule="evenodd" d="M6.17 12.45a.625.625 0 0 1-.393.791c-1.06.356-1.622 1.246-1.923 2.15a6.09 6.09 0 0 0-.236.99c.286-.043.632-.115.991-.235.905-.3 1.794-.864 2.15-1.923a.625.625 0 0 1 1.185.398c-.534 1.59-1.856 2.35-2.94 2.711a7.373 7.373 0 0 1-2.019.363h-.054l-.001-.625h-.625v-.017a3.195 3.195 0 0 1 .006-.169 7.373 7.373 0 0 1 .357-1.888c.36-1.084 1.122-2.405 2.71-2.94a.625.625 0 0 1 .793.393zm-3.24 4.62h-.625c0 .346.28.625.625.625v-.625zM16.546 3.454c-.725-.105-2.51-.144-4.338 1.684L7.345 10 10 12.655l4.863-4.862c1.827-1.828 1.788-3.613 1.683-4.339zm.181-1.237c-.997-.144-3.221-.145-5.403 2.037L6.019 9.558a.625.625 0 0 0 0 .884l3.54 3.54a.626.626 0 0 0 .883 0l5.305-5.305c2.182-2.182 2.18-4.406 2.036-5.404a1.234 1.234 0 0 0-1.056-1.056z" fill="#fff"/><path fill-rule="evenodd" clip-rule="evenodd" d="M14.422 8.492c.345 0 .625.28.625.625v5.056a1.25 1.25 0 0 1-.372.872l-2.522 2.53a1.25 1.25 0 0 1-2.11-.64l-.656-3.273a.625.625 0 1 1 1.226-.246l.656 3.275 2.528-2.536V9.117c0-.345.28-.625.625-.625zM5.827 4.953h5.056a.625.625 0 1 1 0 1.25H5.845l-.005.005-2.53 2.523 3.274.656a.625.625 0 0 1-.246 1.226l-3.272-.656a1.25 1.25 0 0 1-.64-2.11l2.53-2.522a1.25 1.25 0 0 1 .871-.372z" fill="#fff"/></svg><svg fill="none" viewBox="0 0 32 32" id="icons--twitterLogo" xmlns="http://www.w3.org/2000/svg"><path d="M16 11c0-2.75 2.312-5.037 5.062-5a5 5 0 0 1 4.525 3H30l-4.038 4.038A15.988 15.988 0 0 1 10 28c-4 0-5-1.5-5-1.5S9 25 11 22c0 0-8-4-6-15 0 0 5 5 11 6v-2z" stroke="#858584" stroke-width="2" stroke-linecap="round" stroke-linejoin="round"/></svg><svg fill="none" viewBox="0 0 20 20" id="icons--user_log" xmlns="http://www.w3.org/2000/svg"><path fill-rule="evenodd" clip-rule="evenodd" d="M10 3.125a4.375 4.375 0 1 0 0 8.75 4.375 4.375 0 0 0 0-8.75zM4.375 7.5a5.625 5.625 0 1 1 11.25 0 5.625 5.625 0 0 1-11.25 0z" fill="#fff"/><path fill-rule="evenodd" clip-rule="evenodd" d="M10 13.124a8.124 8.124 0 0 0-7.037 4.063.625.625 0 0 1-1.082-.625 9.374 9.374 0 0 1 16.238 0 .625.625 0 1 1-1.082.625A8.123 8.123 0 0 0 10 13.124z" fill="#fff"/></svg><svg fill="none" viewBox="0 0 32 32" id="icons--youtubeLogo" xmlns="http://www.w3.org/2000/svg"><path fill-rule="evenodd" clip-rule="evenodd" d="M13.528 11.118a1 1 0 0 1 1.027.05l6 4a1 1 0 0 1 0 1.664l-6 4A1 1 0 0 1 13 20v-8a1 1 0 0 1 .528-.882zM15 13.868v4.263L18.197 16 15 13.868z" fill="#858584"/><path fill-rule="evenodd" clip-rule="evenodd" d="M15.998 5.05h-.079l-.236.002c-.204.003-.497.007-.862.018a53.55 53.55 0 0 0-2.897.166c-2.277.192-5.175.59-7.406 1.443l-.015.006a3.013 3.013 0 0 0-1.796 2.04v.003C2.394 9.947 2 12.207 2 16.001c0 3.794.395 6.054.706 7.272l.001.004a3.012 3.012 0 0 0 1.796 2.04l.015.006c2.231.852 5.13 1.25 7.406 1.443a54.077 54.077 0 0 0 3.995.185h.162c.055 0 .134 0 .236-.002a54.077 54.077 0 0 0 3.76-.183c2.276-.192 5.174-.591 7.405-1.444l.015-.005a3.011 3.011 0 0 0 1.796-2.04v-.004c.312-1.218.707-3.478.707-7.272 0-3.795-.395-6.054-.706-7.273l-.001-.004a3.013 3.013 0 0 0-1.796-2.04l-.015-.005c-2.231-.852-5.13-1.251-7.406-1.443a54.214 54.214 0 0 0-3.995-.185h-.083zm-.003 19.9h.301c.192-.003.473-.007.823-.018a52.086 52.086 0 0 0 2.79-.159c2.235-.189 4.895-.57 6.85-1.316a1.01 1.01 0 0 0 .598-.68C27.62 21.743 28 19.653 28 16s-.38-5.743-.643-6.775a1.013 1.013 0 0 0-.597-.682c-1.956-.745-4.616-1.127-6.852-1.315a52.225 52.225 0 0 0-3.831-.178h-.154l-.219.001a52.225 52.225 0 0 0-3.612.176c-2.236.19-4.896.57-6.852 1.316a1.013 1.013 0 0 0-.597.682C4.38 10.258 4 12.348 4 16c0 3.653.38 5.743.643 6.775a1.013 1.013 0 0 0 .597.681c1.956.746 4.616 1.127 6.852 1.316a52.086 52.086 0 0 0 3.831.178h.072z" fill="#858584"/></svg><svg fill="none" viewBox="0 0 244 32" id="logo" xmlns="http://www.w3.org/2000/svg"><path fill-rule="evenodd" clip-rule="evenodd" d="M6 12.45a1 1 0 0 1 1 1V26h18V13.45a1 1 0 1 1 2 0V26a2 2 0 0 1-2 2H7a2 2 0 0 1-2-2V13.45a1 1 0 0 1 1-1zM3 5a1 1 0 0 1 1-1h24a1 1 0 1 1 0 2H4a1 1 0 0 1-1-1z" fill="#A259FF"/><path fill-rule="evenodd" clip-rule="evenodd" d="M4 7a1 1 0 0 1 1 1v2a3 3 0 0 0 6 0V8a1 1 0 1 1 2 0v2a5 5 0 1 1-10 0V8a1 1 0 0 1 1-1z" fill="#A259FF"/><path fill-rule="evenodd" clip-rule="evenodd" d="M12 7a1 1 0 0 1 1 1v2a3 3 0 0 0 6 0V8a1 1 0 1 1 2 0v2a5 5 0 1 1-10 0V8a1 1 0 0 1 1-1z" fill="#A259FF"/><path fill-rule="evenodd" clip-rule="evenodd" d="M20 7a1 1 0 0 1 1 1v2a3 3 0 0 0 6 0V8a1 1 0 1 1 2 0v2a5 5 0 1 1-10 0V8a1 1 0 0 1 1-1z" fill="#A259FF"/><path d="M51.48 22.548h.396V8.6h2.904V24h-5.676L47.3 10.052h-.396V24H44V8.6h5.676l1.804 13.948zM58.065 8.6h9.856v2.772h-6.952v3.52h6.82v2.772h-6.82V24h-2.904V8.6zm12.722 0h11.088v2.772h-4.092V24H74.88V11.372h-4.092V8.6zm26.238 0h5.104l.88 11.572v2.244h.528v-2.244l.88-11.572h5.104V24h-2.64V13.704l.264-3.52h-.528L105.473 24h-4.356l-1.188-13.816H99.4l.264 3.52V24h-2.64V8.6zm21.765 13.816c-.294.689-.704 1.18-1.232 1.474-.528.278-1.144.418-1.848.418a4.73 4.73 0 0 1-1.87-.374 4.429 4.429 0 0 1-1.518-1.1 5.517 5.517 0 0 1-1.056-1.76c-.25-.69-.374-1.474-.374-2.354v-.352c0-.866.124-1.643.374-2.332.249-.69.586-1.276 1.012-1.76a4.259 4.259 0 0 1 1.474-1.1 4.303 4.303 0 0 1 1.826-.396c.777 0 1.4.132 1.87.396.484.264.865.674 1.144 1.232h.396v-1.32h2.772V20.7c0 .44.198.66.594.66h.418V24h-1.892c-.499 0-.91-.147-1.232-.44-.308-.294-.462-.675-.462-1.144h-.396zm-2.464-.748c.806 0 1.452-.264 1.936-.792.484-.543.726-1.276.726-2.2v-.264c0-.924-.242-1.65-.726-2.178-.484-.543-1.13-.814-1.936-.814-.807 0-1.452.27-1.936.814-.484.528-.726 1.254-.726 2.178v.264c0 .924.242 1.657.726 2.2.484.528 1.129.792 1.936.792zm8.344-8.58h4.62v1.584h.396c.206-.602.55-1.064 1.034-1.386.499-.338 1.093-.506 1.782-.506 1.086 0 1.958.344 2.618 1.034.66.674.99 1.708.99 3.102v.484l-2.86.264v-.308c0-.602-.154-1.078-.462-1.43-.308-.367-.77-.55-1.386-.55-.616 0-1.1.212-1.452.638-.352.425-.528 1.034-.528 1.826v3.52h2.508V24h-7.524v-2.64h2.244v-5.632h-1.98v-2.64zm17.651 4.004h.528l2.904-4.004h3.036v.132l-3.52 4.994v.396l3.872 5.258V24h-3.168l-3.124-4.268h-.528V24h-2.772V8.6h2.772v8.492zm12.261 2.354c.014.322.088.623.22.902.146.264.337.498.572.704.249.19.528.344.836.462.322.102.66.154 1.012.154.689 0 1.217-.118 1.584-.352.366-.25.63-.543.792-.88l2.376 1.32a5.055 5.055 0 0 1-.55.88 3.917 3.917 0 0 1-.924.814c-.367.249-.822.454-1.364.616-.528.16-1.152.242-1.87.242-.822 0-1.57-.132-2.244-.396a5.063 5.063 0 0 1-1.76-1.144 5.363 5.363 0 0 1-1.144-1.826c-.264-.72-.396-1.533-.396-2.442v-.132c0-.836.139-1.6.418-2.288a5.314 5.314 0 0 1 1.188-1.76 5.282 5.282 0 0 1 1.738-1.122 5.587 5.587 0 0 1 2.156-.418c.938 0 1.745.168 2.42.506.674.322 1.232.74 1.672 1.254a4.81 4.81 0 0 1 .968 1.672c.205.6.308 1.188.308 1.76v1.474h-8.008zm2.618-4.158c-.704 0-1.276.183-1.716.55-.44.352-.726.762-.858 1.232h5.148c-.088-.514-.367-.94-.836-1.276-.455-.338-1.034-.506-1.738-.506zm8.102-2.2h3.234V8.6h2.772v4.488h3.938v2.64h-3.938V20.7c0 .44.198.66.594.66h2.948V24h-4.62c-.498 0-.909-.162-1.232-.484-.308-.323-.462-.734-.462-1.232v-6.556h-3.234v-2.64zM181.281 28.4h-2.772V13.088h2.772v1.584h.396a3.161 3.161 0 0 1 1.276-1.386c.557-.338 1.269-.506 2.134-.506a4.51 4.51 0 0 1 1.826.374 4.159 4.159 0 0 1 1.518 1.1c.44.469.785 1.048 1.034 1.738.264.689.396 1.474.396 2.354v.396c0 .894-.125 1.686-.374 2.376a5.432 5.432 0 0 1-1.012 1.76 4.294 4.294 0 0 1-1.518 1.078 4.878 4.878 0 0 1-1.87.352c-.499 0-.931-.052-1.298-.154a3.641 3.641 0 0 1-.968-.418 3.375 3.375 0 0 1-.682-.594 5.498 5.498 0 0 1-.462-.726h-.396V28.4zm2.904-6.732c.865 0 1.562-.264 2.09-.792.543-.543.814-1.276.814-2.2v-.264c0-.924-.271-1.65-.814-2.178-.528-.543-1.225-.814-2.09-.814-.865 0-1.569.278-2.112.836-.528.542-.792 1.26-.792 2.156v.264c0 .894.264 1.62.792 2.178.543.542 1.247.814 2.112.814zm8.301-.308h3.828V11.24h-3.696V8.6h6.468v12.76h3.564V24h-10.164v-2.64zm20.598 1.056c-.293.689-.704 1.18-1.232 1.474-.528.278-1.144.418-1.848.418-.66 0-1.283-.125-1.87-.374a4.429 4.429 0 0 1-1.518-1.1 5.517 5.517 0 0 1-1.056-1.76c-.249-.69-.374-1.474-.374-2.354v-.352c0-.866.125-1.643.374-2.332.25-.69.587-1.276 1.012-1.76a4.277 4.277 0 0 1 1.474-1.1 4.306 4.306 0 0 1 1.826-.396c.778 0 1.401.132 1.87.396.484.264.866.674 1.144 1.232h.396v-1.32h2.772V20.7c0 .44.198.66.594.66h.418V24h-1.892c-.498 0-.909-.147-1.232-.44-.308-.294-.462-.675-.462-1.144h-.396zm-2.464-.748c.807 0 1.452-.264 1.936-.792.484-.543.726-1.276.726-2.2v-.264c0-.924-.242-1.65-.726-2.178-.484-.543-1.129-.814-1.936-.814-.806 0-1.452.27-1.936.814-.484.528-.726 1.254-.726 2.178v.264c0 .924.242 1.657.726 2.2.484.528 1.13.792 1.936.792zm19.521-1.672c-.249 1.29-.843 2.332-1.782 3.124-.924.792-2.163 1.188-3.718 1.188a6.738 6.738 0 0 1-2.266-.374 5.325 5.325 0 0 1-1.804-1.078 4.937 4.937 0 0 1-1.21-1.738c-.293-.69-.44-1.474-.44-2.354V18.5c0-.88.147-1.672.44-2.376a5.349 5.349 0 0 1 1.21-1.804 5.496 5.496 0 0 1 1.826-1.144 6.338 6.338 0 0 1 2.244-.396c1.525 0 2.757.396 3.696 1.188.953.792 1.555 1.833 1.804 3.124l-2.728.704a2.855 2.855 0 0 0-.836-1.672c-.469-.47-1.129-.704-1.98-.704-.396 0-.77.073-1.122.22a2.68 2.68 0 0 0-.924.638 2.951 2.951 0 0 0-.638.99c-.147.38-.22.814-.22 1.298v.132c0 .484.073.916.22 1.298.161.366.374.674.638.924.264.249.572.44.924.572.352.117.726.176 1.122.176.851 0 1.496-.213 1.936-.638.455-.426.748-.998.88-1.716l2.728.682zm5.265-.55c.015.322.088.623.22.902.147.264.337.498.572.704.249.19.528.344.836.462.323.102.66.154 1.012.154.689 0 1.217-.118 1.584-.352.367-.25.631-.543.792-.88l2.376 1.32a4.996 4.996 0 0 1-.55.88 3.917 3.917 0 0 1-.924.814c-.367.249-.821.454-1.364.616-.528.16-1.151.242-1.87.242-.821 0-1.569-.132-2.244-.396a5.073 5.073 0 0 1-1.76-1.144 5.378 5.378 0 0 1-1.144-1.826c-.264-.72-.396-1.533-.396-2.442v-.132c0-.836.139-1.6.418-2.288a5.314 5.314 0 0 1 1.188-1.76 5.292 5.292 0 0 1 1.738-1.122 5.59 5.59 0 0 1 2.156-.418c.939 0 1.745.168 2.42.506.675.322 1.232.74 1.672 1.254.44.498.763 1.056.968 1.672.205.6.308 1.188.308 1.76v1.474h-8.008zm2.618-4.158c-.704 0-1.276.183-1.716.55-.44.352-.726.762-.858 1.232h5.148c-.088-.514-.367-.94-.836-1.276-.455-.338-1.034-.506-1.738-.506z" fill="#fff"/></svg></svg>